<?xml version="1.0" encoding="UTF-8"?>
<svg id="facebook" xmlns="http://www.w3.org/2000/svg" version="1.1" viewBox="0 0 100 100">
  <defs>
    <style>
      .cls-1 {
        fill: #fff;
      }

      .cls-1, .cls-2 {
        stroke-width: 0px;
      }

      .cls-2 {
        fill: #1877f2;
      }
    </style>
  </defs>
  <g>
    <path class="cls-2" d="M42.1,99.9C10.8,94.1-1.4,68.8.3,46.4,2,24.1,18.1,1.1,50,.1c31.9.9,48,23.9,49.7,46.3,1.7,22.4-10.5,47.6-41.9,53.5h-15.7Z"/>
    <path class="cls-1" d="M50,.3c14.4.4,26.7,5.5,35.7,14.7,8,8.2,13,19.4,13.9,31.5.9,12.1-2.2,23.9-8.9,33.3-7.5,10.5-18.8,17.4-32.8,20h-15.7c-14-2.6-25.4-9.5-32.9-20C2.6,70.3-.5,58.5.4,46.4c.9-12,5.9-23.2,13.9-31.5C23.3,5.8,35.6.7,50,.3M50,0C-12,1.8-18.3,88.8,42.1,100h15.7C118.3,88.8,112,1.8,50,0h0Z"/>
  </g>
  <path class="cls-1" d="M57.9,64.8h11.7l2.2-14.5h-13.9v-9.4c0-4,1.9-7.9,8.2-7.9h6.3v-12.4c-13.6-2.4-29.9-1.7-30.2,18.6v11.1h-12.8v14.5h12.8v35.2h15.7v-35.2Z"/>
</svg>