<?xml version="1.0" encoding="UTF-8"?>
<svg id="Layer_1" data-name="Layer 1" xmlns="http://www.w3.org/2000/svg" version="1.1" xmlns:xlink="http://www.w3.org/1999/xlink" viewBox="0 0 100 100">
  <defs>
    <style>
      .cls-1 {
        fill: url(#linear-gradient);
      }

      .cls-1, .cls-2 {
        stroke-width: 0px;
      }

      .cls-2 {
        fill: #fff;
      }
    </style>
    <linearGradient id="linear-gradient" x1="14.7" y1="14.7" x2="85.3" y2="85.3" gradientTransform="translate(0 100) scale(1 -1)" gradientUnits="userSpaceOnUse">
      <stop offset="0" stop-color="#ffd521"/>
      <stop offset="0" stop-color="#ffd020"/>
      <stop offset=".1" stop-color="#fec01e"/>
      <stop offset=".2" stop-color="#fca71b"/>
      <stop offset=".3" stop-color="#fa8316"/>
      <stop offset=".4" stop-color="#f85510"/>
      <stop offset=".5" stop-color="#f51e09"/>
      <stop offset=".5" stop-color="#f30005"/>
      <stop offset=".5" stop-color="#f20007"/>
      <stop offset=".6" stop-color="#e1003b"/>
      <stop offset=".7" stop-color="#d30067"/>
      <stop offset=".8" stop-color="#c70088"/>
      <stop offset=".9" stop-color="#bf00a0"/>
      <stop offset=".9" stop-color="#bb00af"/>
      <stop offset="1" stop-color="#b900b4"/>
    </linearGradient>
  </defs>
  <g>
    <path class="cls-1" d="M50,99.9C22.5,99.9.1,77.5.1,50S22.5.1,50,.1s49.9,22.4,49.9,49.9-22.4,49.9-49.9,49.9Z"/>
    <path class="cls-2" d="M50,.2c27.4,0,49.8,22.3,49.8,49.8s-22.3,49.8-49.8,49.8S.2,77.4.2,50,22.6.2,50,.2M50,0C22.4,0,0,22.4,0,50s22.4,50,50,50,50-22.4,50-50S77.6,0,50,0h0Z"/>
  </g>
  <g>
    <path class="cls-2" d="M50,22c9.1,0,10.2,0,13.8.2,3.3.2,5.1.7,6.3,1.2,1.6.6,2.7,1.4,3.9,2.6s1.9,2.3,2.5,3.9c.5,1.2,1,3,1.2,6.3.2,3.6.2,4.7.2,13.8s0,10.2-.2,13.8c-.1,3.3-.7,5.1-1.2,6.3-.6,1.6-1.4,2.7-2.5,3.9s-2.3,1.9-3.9,2.5c-1.2.5-3,1-6.3,1.2-3.6.2-4.7.2-13.8.2s-10.2,0-13.8-.2c-3.3-.1-5.1-.7-6.3-1.2-1.6-.6-2.7-1.4-3.9-2.5-1.2-1.2-1.9-2.3-2.5-3.9-.5-1.2-1-3-1.2-6.3-.2-3.6-.2-4.7-.2-13.8s0-10.2.2-13.8c.1-3.3.7-5.1,1.2-6.3.6-1.6,1.4-2.7,2.5-3.9,1.2-1.2,2.3-1.9,3.9-2.5,1.2-.5,3-1,6.3-1.2,3.6-.2,4.7-.2,13.8-.2M50,15.9c-9.3,0-10.4,0-14.1.2-3.6.2-6.1.7-8.3,1.6-2.2.9-4.1,2-6,3.9-1.9,1.9-3.1,3.8-3.9,6-.8,2.2-1.4,4.7-1.6,8.3s-.2,4.8-.2,14.1,0,10.4.2,14.1c.2,3.6.7,6.1,1.6,8.3.9,2.2,2,4.1,3.9,6,1.9,1.9,3.8,3.1,6,3.9,2.2.8,4.7,1.4,8.3,1.6s4.8.2,14.1.2,10.4,0,14.1-.2c3.6-.2,6.1-.7,8.3-1.6,2.2-.9,4.1-2,6-3.9,1.9-1.9,3.1-3.8,3.9-6,.8-2.2,1.4-4.6,1.6-8.3s.2-4.8.2-14.1,0-10.4-.2-14.1c-.2-3.6-.7-6.1-1.6-8.3-.9-2.2-2-4.1-3.9-6-1.9-1.9-3.8-3.1-6-3.9-2.2-.8-4.6-1.4-8.3-1.6-3.6-.2-4.8-.2-14.1-.2h0Z"/>
    <path class="cls-2" d="M50,32.5c-9.7,0-17.5,7.9-17.5,17.5s7.9,17.5,17.5,17.5,17.5-7.9,17.5-17.5-7.9-17.5-17.5-17.5ZM50,61.4c-6.3,0-11.4-5.1-11.4-11.4s5.1-11.4,11.4-11.4,11.4,5.1,11.4,11.4-5.1,11.4-11.4,11.4Z"/>
    <circle class="cls-2" cx="68.2" cy="31.8" r="4.1"/>
  </g>
</svg>