<?xml version="1.0" encoding="UTF-8"?>
<svg id="linkedin" xmlns="http://www.w3.org/2000/svg" version="1.1" viewBox="0 0 100 100">
  <defs>
    <style>
      .cls-1 {
        fill: #f1f2f2;
      }

      .cls-1, .cls-2, .cls-3 {
        stroke-width: 0px;
      }

      .cls-2 {
        fill: #fff;
      }

      .cls-3 {
        fill: #007ab9;
      }
    </style>
  </defs>
  <g>
    <path class="cls-3" d="M50,99.9C22.5,99.9.1,77.5.1,50S22.5.1,50,.1s49.9,22.4,49.9,49.9-22.4,49.9-49.9,49.9Z"/>
    <path class="cls-2" d="M50,.2c27.4,0,49.8,22.3,49.8,49.8s-22.3,49.8-49.8,49.8S.2,77.4.2,50,22.6.2,50,.2M50,0C22.4,0,0,22.4,0,50s22.4,50,50,50,50-22.4,50-50S77.6,0,50,0h0Z"/>
  </g>
  <path class="cls-1" d="M79.9,54v20.6h-12v-19.2c0-4.8-1.7-8.1-6.1-8.1s-5.3,2.2-6.1,4.4c-.3.8-.4,1.8-.4,2.9v20.1h-12s.2-32.6,0-35.9h12v5.1s0,0,0,.1h0c1.6-2.6,4.4-6.1,10.8-6.1s13.8,5.1,13.8,16.2ZM30.9,21.4c-4.1,0-6.8,2.7-6.8,6.2s2.6,6.2,6.6,6.2h0c4.2,0,6.8-2.8,6.8-6.2,0-3.5-2.6-6.2-6.7-6.2ZM24.8,74.6h11.9v-35.9h-11.9s0,35.9,0,35.9Z"/>
</svg>