<?xml version="1.0" encoding="UTF-8"?>
<svg id="twitter-x" xmlns="http://www.w3.org/2000/svg" version="1.1" viewBox="0 0 100 100">
  <defs>
    <style>
      .cls-1 {
        fill: #000;
      }

      .cls-1, .cls-2 {
        stroke-width: 0px;
      }

      .cls-2 {
        fill: #fff;
      }
    </style>
  </defs>
  <g>
    <path class="cls-1" d="M50,99.9C22.5,99.9.1,77.5.1,50S22.5.1,50,.1s49.9,22.4,49.9,49.9-22.4,49.9-49.9,49.9Z"/>
    <path class="cls-2" d="M50,.2c27.4,0,49.8,22.3,49.8,49.8s-22.3,49.8-49.8,49.8S.3,77.4.3,50,22.6.2,50,.2M50,0C22.4,0,0,22.4,0,50s22.4,50,50,50,50-22.4,50-50S77.6,0,50,0h0Z"/>
  </g>
  <path class="cls-2" d="M19.2,20.9l24,32-24.1,26.1h5.4l21.1-22.8,17.1,22.8h18.5l-25.3-33.8,22.4-24.3h-5.4l-19.4,21-15.7-21h-18.5ZM27.2,24.9h8.5l37.5,50.1h-8.5L27.2,24.9Z"/>
</svg>